<?xml version="1.0" encoding="iso-8859-1"?>
<!-- Uploaded to: SVG Repo, www.svgrepo.com, Generator: SVG Repo Mixer Tools -->
<!DOCTYPE svg PUBLIC "-//W3C//DTD SVG 1.1//EN" "http://www.w3.org/Graphics/SVG/1.1/DTD/svg11.dtd">
<svg fill="#000000" version="1.1" id="Capa_1" xmlns="http://www.w3.org/2000/svg" xmlns:xlink="http://www.w3.org/1999/xlink" 
	 width="800px" height="800px" viewBox="0 0 235.504 235.504"
	 xml:space="preserve">
<g>
	<g>
		<path d="M195.209,81.456l-49.227-0.15c0.737-0.886,1.351-1.868,2.284-2.583c3.282-2.497,3.911-7.166,1.427-10.438
			c-2.501-3.266-7.161-3.919-10.443-1.423c-4.873,3.715-8.388,8.704-10.255,14.389l-22.191-0.064
			c-9.508,0-19.588,7.398-22.938,16.851l-16.877,47.479c-1.775,5.013-1.338,9.966,1.207,13.568
			c2.412,3.427,6.384,5.318,11.187,5.358l45.126,0.136c-1.509,5.186-4.701,9.622-9.352,12.424
			c-4.891,2.957-10.636,3.814-16.172,2.444c-3.994-0.998-8.031,1.442-9.027,5.418c-0.99,4.012,1.445,8.035,5.432,9.032
			c2.927,0.738,5.879,1.091,8.808,1.091c6.516,0,12.93-1.788,18.645-5.23c8.312-5.013,14.172-12.979,16.484-22.409
			c0.232-0.905,0.232-1.823,0.124-2.713l28.296,0.092h0.049c2.925,0,5.854-0.89,8.684-2.147c0.2,0.493,0.32,1.014,0.661,1.471
			c3.335,4.677,4.629,10.343,3.688,15.993c-0.95,5.627-4.028,10.536-8.688,13.862c-3.351,2.376-4.14,7.037-1.755,10.379
			c1.466,2.04,3.751,3.122,6.062,3.122c1.491,0,3.006-0.429,4.312-1.367c7.919-5.61,13.16-13.966,14.771-23.52
			c1.603-9.565-0.613-19.203-6.28-27.122c-0.48-0.693-1.134-1.19-1.779-1.659c1.318-1.831,2.501-3.763,3.238-5.854l16.863-47.464
			c1.795-5.018,1.351-9.969-1.194-13.58C203.954,83.387,200.015,81.47,195.209,81.456z M201.979,98.405l-16.868,47.464
			c-0.981,2.757-2.941,5.214-5.213,7.329c-0.337,0.16-0.706,0.229-1.026,0.465c-0.673,0.485-1.182,1.122-1.639,1.747
			c-2.962,1.996-6.288,3.339-9.434,3.339v2.989l-0.044-2.989l-33.194-0.101c-0.232-0.076-0.424-0.261-0.661-0.324
			c-1.435-0.353-2.805-0.145-4.095,0.309l-29.768-0.101l1.192-3.358c0.549-1.547-0.269-3.25-1.813-3.795
			c-1.521-0.553-3.25,0.24-3.799,1.804l-1.899,5.334l-14.318-0.044c-2.805,0-5.063-0.998-6.336-2.813
			c-1.437-2.032-1.603-4.921-0.463-8.144l16.877-47.478c2.48-6.979,10.417-12.868,17.356-12.868l12.217,0.038l-1.963,5.536
			c-0.555,1.549,0.262,3.25,1.805,3.797c0.331,0.12,0.661,0.174,0.998,0.174c1.227,0,2.372-0.768,2.793-1.986l2.497-7.019
			c0.064-0.164-0.048-0.322-0.016-0.487h2.512c-0.905,7.758,1.163,15.42,5.947,21.638c5.903,7.687,14.852,11.726,23.873,11.726
			c6.371,0,12.771-2.001,18.186-6.129c3.266-2.488,3.911-7.167,1.426-10.441c-2.508-3.267-7.161-3.901-10.455-1.415
			c-6.612,5.056-16.146,3.775-21.223-2.809c-2.445-3.194-3.487-7.133-2.958-11.117c0.061-0.503,0.353-0.916,0.481-1.402
			l52.216,0.156c2.806,0,5.054,1.004,6.324,2.811C202.928,92.241,203.105,95.223,201.979,98.405z"/>
		<path d="M107.997,127.194c-1.531-0.553-3.248,0.244-3.799,1.791l-4.302,12.099c-0.551,1.543,0.265,3.242,1.813,3.795
			c0.331,0.116,0.659,0.16,0.998,0.16c1.214,0,2.372-0.765,2.801-1.976l4.294-12.099
			C110.369,129.446,109.551,127.728,107.997,127.194z"/>
		<path d="M116.6,103.014c-1.529-0.541-3.25,0.252-3.805,1.805l-4.298,12.088c-0.547,1.547,0.261,3.252,1.799,3.799
			c0.329,0.12,0.659,0.172,1,0.172c1.222,0,2.368-0.769,2.809-1.983l4.294-12.09C118.955,105.268,118.139,103.555,116.6,103.014z"/>
		<path d="M232.527,90.428l-14.896-0.038l0,0c-1.639,0-2.974,1.327-2.997,2.976c0,1.639,1.342,2.981,2.981,2.989l14.896,0.042l0,0
			c1.643,0,2.978-1.331,2.993-2.979C235.504,91.763,234.17,90.436,232.527,90.428z"/>
		<path d="M220.333,80.436c0.629,0,1.242-0.188,1.771-0.583l11.994-8.83c1.326-0.974,1.611-2.842,0.645-4.168
			c-0.965-1.327-2.845-1.611-4.163-0.637l-11.998,8.833c-1.323,0.974-1.607,2.841-0.642,4.167
			C218.513,80.003,219.418,80.436,220.333,80.436z"/>
		<path d="M209.152,56.279c-1.547-0.549-3.25,0.269-3.787,1.805l-4.997,14.036c-0.537,1.547,0.26,3.252,1.803,3.807
			c0.337,0.12,0.674,0.172,0.994,0.172c1.242,0,2.385-0.757,2.821-1.986l4.985-14.036C211.516,58.541,210.695,56.846,209.152,56.279
			z"/>
		<path d="M17.587,100.894h55.208c1.641,0,2.976-1.343,2.976-2.981c0-1.641-1.334-2.988-2.976-2.988H17.587
			c-1.641,0-2.988,1.338-2.988,2.988C14.599,99.559,15.946,100.894,17.587,100.894z"/>
		<path d="M68.471,119.328c0-1.641-1.345-2.987-2.986-2.987H10.283c-1.639,0-2.981,1.338-2.981,2.987
			c0,1.639,1.342,2.974,2.981,2.974h55.202C67.119,122.301,68.471,120.967,68.471,119.328z"/>
		<path d="M58.188,137.758H2.974c-1.641,0-2.974,1.335-2.974,2.989c0,1.64,1.333,2.974,2.974,2.974h55.214
			c1.639,0,2.981-1.334,2.981-2.974C61.162,139.093,59.827,137.758,58.188,137.758z"/>
		<path d="M169.611,28.097c11.821,0,21.403,9.584,21.403,21.41c0,11.82-9.582,21.408-21.403,21.408
			c-11.822,0-21.412-9.588-21.412-21.408C148.199,37.681,157.789,28.097,169.611,28.097z"/>
	</g>
</g>
</svg>